<?xml version="1.0" encoding="UTF-8" standalone="no"?>
<!-- Created with Inkscape (http://www.inkscape.org/) -->

<svg
   xmlns:dc="http://purl.org/dc/elements/1.1/"
   xmlns:cc="http://creativecommons.org/ns#"
   xmlns:rdf="http://www.w3.org/1999/02/22-rdf-syntax-ns#"
   xmlns:svg="http://www.w3.org/2000/svg"
   xmlns="http://www.w3.org/2000/svg"
   xmlns:xlink="http://www.w3.org/1999/xlink"
   xmlns:sodipodi="http://sodipodi.sourceforge.net/DTD/sodipodi-0.dtd"
   xmlns:inkscape="http://www.inkscape.org/namespaces/inkscape"
   width="600"
   height="300"
   id="svg2"
   sodipodi:version="0.32"
   inkscape:version="0.48.2 r9819"
   version="1.0"
   sodipodi:docname="Bouncing_ball4.svg"
   inkscape:output_extension="org.inkscape.output.svg.inkscape">
  <metadata
     id="metadata11">
    <rdf:RDF>
      <cc:Work
         rdf:about="">
        <dc:format>image/svg+xml</dc:format>
        <dc:type
           rdf:resource="http://purl.org/dc/dcmitype/StillImage" />
        <dc:title></dc:title>
      </cc:Work>
    </rdf:RDF>
  </metadata>
  <defs
     id="defs9" />
  <sodipodi:namedview
     pagecolor="#ffffff"
     bordercolor="#666666"
     borderopacity="1"
     objecttolerance="10"
     gridtolerance="10"
     guidetolerance="10"
     inkscape:pageopacity="0"
     inkscape:pageshadow="2"
     inkscape:window-width="1920"
     inkscape:window-height="852"
     id="namedview7"
     showgrid="false"
     borderlayer="true"
     inkscape:showpageshadow="false"
     inkscape:zoom="0.81848695"
     inkscape:cx="-117.05661"
     inkscape:cy="189.372"
     inkscape:window-x="44"
     inkscape:window-y="63"
     inkscape:window-maximized="0"
     inkscape:current-layer="svg2" />
  <g
     id="g3778"
     transform="translate(39.962651,66.055746)">
    <path
       sodipodi:nodetypes="cccccccc"
       inkscape:connector-curvature="0"
       id="path3770"
       d="m -40.731054,233.74232 c 0,-2.99888 -2.998881,-71.22344 0,-72.72288 C -18.655389,142.523 5.5736671,107.3413 75.475606,76.301036 166.63491,35.501976 243.83126,36.344676 382.11126,71.802706 c 74.83633,20.6123 108.3442,39.266514 177.68373,66.725124 l -0.74972,92.21561 2.24916,4.49832 z"
       style="fill:#64ab37;fill-opacity:1;stroke:#000000;stroke-width:0;stroke-linecap:butt;stroke-linejoin:miter;stroke-miterlimit:4;stroke-opacity:1;stroke-dasharray:none" />
    <path
       sodipodi:nodetypes="ccccc"
       inkscape:connector-curvature="0"
       id="path3768"
       d="M -35.099116,213.55407 C 128.55064,63.247164 384.6034,128.30796 554.36696,184.31497 l 0.73775,26.98994 C 319.72886,137.59804 131.21371,95.777321 -35.099116,244.29261 z"
       style="fill:#c8c8c8;fill-opacity:1;stroke:#000000;stroke-width:0;stroke-linecap:butt;stroke-linejoin:miter;stroke-miterlimit:4;stroke-opacity:1;stroke-dasharray:none" />
    <path
       sodipodi:nodetypes="csscscc"
       inkscape:connector-curvature="0"
       id="path3772"
       d="m -43.186404,-64.91817 c 3.748602,2.249161 591.529404,-5.248043 598.276884,-0.749721 6.74749,4.498323 -1.37936,207.142141 1.49944,205.423391 3.30026,-1.97037 -89.20464,-36.73371 -110.2089,-44.233499 C 352.06199,62.641091 220.92837,33.073577 124.84712,60.719891 23.02168,90.019041 -4.2161059,127.8541 -43.936124,162.99683 c 0,-3.7486 2.249161,-228.664721 0.74972,-227.915 z"
       style="fill:#d0f2ff;fill-opacity:1;stroke:#000000;stroke-width:0;stroke-linecap:butt;stroke-linejoin:miter;stroke-miterlimit:4;stroke-opacity:1;stroke-dasharray:none" />
    <path
       inkscape:label="#path1192"
       sodipodi:nodetypes="cssc"
       inkscape:connector-curvature="0"
       id="motion_path"
       d="m -22.242953,269.37485 c 97.732234,-62.66277 144.735343,-82.66118 263.289423,-89.58278 52.50264,-3.06528 124.8656,10.71496 192.84034,27.47134 36.82495,9.07768 88.57926,24.92924 124.6695,33.8303"
       style="fill:none;stroke:#000000;stroke-width:0;stroke-linecap:butt;stroke-linejoin:miter;stroke-opacity:1;stroke-miterlimit:4;stroke-dasharray:none" />
    <path
       sodipodi:nodetypes="ccc"
       inkscape:connector-curvature="0"
       id="path3774"
       d="m 246.65801,79.582202 c 24.65029,-121.433633 44.50516,-4.711965 40.26797,2.37029 -27.90514,-6.763689 -15.76466,-2.806575 -40.26797,-2.37029 z"
       style="fill:#255a1b;fill-opacity:1;stroke:#2a2a2a;stroke-width:0;stroke-linecap:butt;stroke-linejoin:miter;stroke-miterlimit:4;stroke-opacity:1;stroke-dasharray:none" />
    <path
       sodipodi:nodetypes="ccccc"
       inkscape:connector-curvature="0"
       id="path3776"
       d="m 262.13618,78.736177 c 1.49944,2.998881 -4.01455,38.210543 -4.01455,38.210543 l 12.7934,0.26596 -1.01568,-39.226224 c 0.59093,0.354557 -4.34215,-1.396099 -7.76317,0.749721 z"
       style="fill:#a1593d;fill-opacity:1;stroke:#000000;stroke-width:0;stroke-linecap:butt;stroke-linejoin:miter;stroke-miterlimit:4;stroke-opacity:1;stroke-dasharray:none" />
    <path
       inkscape:connector-curvature="0"
       id="car"
       d="m -10.427979,-34.71482 c 0.6919843,-0.188223 1.1699761,-0.752005 1.1699761,-1.379967 0,-0.329477 -0.1245902,-1.08706 -0.2039513,-1.240146 -0.1636679,-0.315715 -0.7061078,-0.682871 -1.2271198,-0.830587 -0.399174,-0.113171 -1.230745,-0.09587 -1.50858,0.03139 -0.7886,0.361208 -1.085192,1.634033 -0.599825,2.574174 0.148656,0.287941 0.521781,0.664291 0.793497,0.800348 0.207219,0.103765 0.294682,0.116234 0.788308,0.112365 0.305378,-0.0025 0.659841,-0.03281 0.787695,-0.06758 z m -1.437891,-0.195429 c -0.481477,-0.241099 -0.738489,-0.568812 -0.912017,-1.162914 -0.152002,-0.520399 0.06175,-1.374292 0.301197,-1.203214 0.02461,0.01759 0.04474,0.25079 0.04474,0.518233 0,0.431239 0.01564,0.519263 0.138167,0.777883 0.232839,0.491427 0.356874,0.585658 0.929968,0.706482 0.291682,0.06149 0.455136,0.06989 0.708087,0.03641 0.412684,-0.05464 0.511983,0.0082 0.290761,0.183969 -0.172105,0.136756 -0.573349,0.237169 -0.829588,0.207605 -0.09868,-0.01136 -0.179412,-0.0031 -0.179412,0.01816 0,0.07853 -0.255959,0.03555 -0.491906,-0.08261 z m -14.516654,0.192392 c 0.553797,-0.152539 1.04955,-0.551125 1.287991,-1.035549 0.141842,-0.28817 0.143067,-0.873945 0.0033,-1.643648 -0.05269,-0.290466 -0.09356,-0.637531 -0.09082,-0.77125 l 0.005,-0.243132 0.221435,-0.01323 c 0.295782,-0.0177 0.483314,0.102481 0.758816,0.486149 0.460848,0.64178 0.355607,0.591962 1.357146,0.64248 1.414269,0.07135 1.61836,0.08211 1.919129,0.101224 0.175919,0.01115 1.526687,0.03448 3.001712,0.05179 1.475021,0.01729 2.980795,0.04534 3.346171,0.06229 l 0.664311,0.03083 0.01498,0.127511 c 0.0093,0.07917 -0.01304,0.138137 -0.05894,0.155536 -0.129204,0.04898 -6.64134,-0.06212 -8.064506,-0.137609 -0.751814,-0.03986 -1.520732,-0.0725 -1.7087,-0.0725 l -0.34176,0 -0.235029,-0.372633 c -0.291168,-0.46163 -0.53955,-0.745772 -0.651928,-0.745772 -0.118944,0 0.697981,1.226059 0.8496,1.275091 0.340887,0.110241 8.237042,0.32281 10.072547,0.271161 l 0.51595,-0.0145 0.02975,-0.170195 c 0.01634,-0.09361 0.06651,-0.254918 0.111459,-0.35848 0.04494,-0.103556 0.08171,-0.221301 0.08171,-0.261652 0,-0.04037 0.110723,-0.297398 0.246046,-0.571211 0.135323,-0.273818 0.246041,-0.519203 0.246041,-0.545298 0,-0.02611 0.03876,-0.08091 0.08611,-0.121787 0.0755,-0.06517 0.255872,-0.06897 1.463198,-0.03088 0.977482,0.03088 1.3932035,0.06082 1.432639,0.103262 0.030537,0.03286 0.267152,0.388018 0.5257774,0.789186 0.5330364,0.826819 0.9676058,1.308095 1.3639038,1.510506 0.2666953,0.136214 0.2847645,0.138451 1.2386051,0.152934 0.5812579,0.0088 1.0210406,-0.0052 1.1008256,-0.03524 0.119183,-0.04478 0.1290841,-0.0661 0.096114,-0.206925 -0.020248,-0.08635 -0.052736,-0.266414 -0.072262,-0.400139 -0.019546,-0.133719 -0.058086,-0.297834 -0.085698,-0.364696 -0.075324,-0.182427 -0.1226564,-0.715448 -0.1381786,-1.556044 -0.00766,-0.41454 -0.040206,-0.863118 -0.072349,-0.996842 -0.032138,-0.133724 -0.131677,-0.741493 -0.2211982,-1.350594 -0.089527,-0.609111 -0.1898793,-1.139748 -0.2230146,-1.179191 -0.033127,-0.03945 -0.1226522,-0.07173 -0.1989351,-0.07173 -0.076282,0 -0.1524171,-0.02196 -0.1691907,-0.04878 -0.020285,-0.03241 -0.062463,-0.03185 -0.1259238,0.0015 -0.1156608,0.06117 -0.2466912,0.0025 -0.3508956,-0.15764 -0.039914,-0.06126 -0.2586583,-0.515859 -0.4861068,-1.010223 -0.634134,-1.22288 -1.2353912,-2.596194 -2.1187432,-3.675603 -0.5440278,-0.649999 -0.8252248,-0.807735 -1.8882938,-1.059245 -1.480437,-0.35025 -3.829382,-0.657527 -5.739466,-0.808863 -1.234988,-0.09785 -3.833932,-0.113089 -5.196643,-0.0281 -1.801336,0.11238 -3.431869,0.439738 -4.762617,0.778086 -1.39229,0.353996 -1.504042,0.393531 -1.872328,0.662384 -0.845599,0.895217 -1.69247,2.332547 -2.065896,3.38903 -0.366632,1.106859 -0.504189,2.234392 -0.546884,4.482805 -0.03136,1.650849 -0.03346,1.677036 -0.147026,1.842434 -0.07902,0.115058 -0.115225,0.237225 -0.115225,0.388754 0,0.200555 0.02202,0.241956 0.238371,0.448019 0.26216,0.2497 0.737592,0.45768 1.370615,0.599584 0.345147,0.07737 0.703807,0.104951 0.703807,0.05412 0,-0.01389 -0.05564,-0.11237 -0.123635,-0.218816 -0.133426,-0.208858 -0.249873,-0.259934 -0.204861,-0.08986 0.02604,0.09843 0.01473,0.102198 -0.223729,0.07429 -0.305423,-0.03576 -0.927956,-0.237382 -1.190046,-0.385457 -0.402072,-0.227159 -0.488922,-0.534056 -0.24156,-0.853574 l 0.138516,-0.178918 0.03227,-1.847803 c 0.03448,-1.974327 0.0905,-2.597207 0.316146,-3.515742 0.110859,-0.45127 0.193714,-0.694524 0.321901,-0.945065 0.02375,-0.04645 0.0432,-0.117558 0.0432,-0.158041 0,-0.04046 0.01913,-0.0736 0.04252,-0.0736 0.02338,0 0.08018,-0.09745 0.126211,-0.21654 0.04916,-0.127218 0.1245,-0.229345 0.182627,-0.247575 0.144944,-0.04549 0.16345,0.0025 0.07335,0.19012 -0.04414,0.09192 -0.08026,0.204207 -0.08026,0.249527 0,0.04534 -0.0314,0.140484 -0.06978,0.211469 -0.13298,0.245977 -0.36552,1.201835 -0.445436,1.830993 -0.04417,0.347678 -0.09167,0.675909 -0.105562,0.729399 -0.01391,0.05349 -0.04281,0.9397 -0.06425,1.969367 -0.03465,1.664154 -0.04896,1.892327 -0.128788,2.05409 -0.08874,0.17982 -0.08853,0.183309 0.01753,0.294893 0.05904,0.06211 0.107352,0.13844 0.107352,0.169637 0,0.08059 0.334031,0.136879 1.120315,0.188806 l 0.406792,0.02688 0.464016,-0.467564 c 0.424981,-0.428227 0.611422,-0.545739 0.683364,-0.430711 0.01267,0.02028 -0.02884,0.157026 -0.09224,0.303914 -0.427298,0.989905 -0.187512,2.177764 0.539362,2.671955 0.461671,0.313879 1.244724,0.455352 1.75002,0.316172 z m -1.125335,-0.248468 c -0.493351,-0.133805 -0.800214,-0.398302 -1.035148,-0.892225 -0.110608,-0.232539 -0.126546,-0.327749 -0.122138,-0.729399 0.0033,-0.312023 0.03284,-0.532965 0.09062,-0.680771 0.04705,-0.120347 0.112945,-0.344965 0.146422,-0.499146 0.05111,-0.23541 0.04953,-0.296339 -0.0099,-0.380184 -0.06363,-0.08977 -0.102587,-0.09648 -0.386163,-0.06648 -0.294049,0.03114 -0.313185,0.02723 -0.282773,-0.05746 0.07634,-0.21258 0.223725,-0.30965 0.470132,-0.30965 0.201058,0 0.265922,0.0251 0.416117,0.161133 0.156722,0.141929 0.177396,0.187564 0.173429,0.382862 -0.0025,0.121944 -0.06322,0.372191 -0.135002,0.556104 -0.247382,0.63388 -0.128302,1.387821 0.284901,1.803867 0.323274,0.325492 0.632759,0.424373 1.305703,0.417162 0.304834,-0.0031 0.553596,0.014 0.553596,0.03838 0,0.0244 -0.04627,0.04432 -0.102838,0.04432 -0.05656,0 -0.167051,0.06018 -0.245531,0.133725 -0.219354,0.205551 -0.562464,0.229334 -1.12143,0.07774 z m 20.5134407,-1.303221 c -0.4459145,-0.006 -0.6655736,-0.02997 -0.7985961,-0.08743 -0.4041499,-0.174607 -1.0153827,-0.88396 -1.5744847,-1.827225 -0.2019389,-0.3407 -0.3374674,-0.517118 -0.4215194,-0.548696 -0.1517259,-0.057 -2.6684095,-0.153861 -2.8969605,-0.111493 -0.151776,0.02815 -0.164236,0.02089 -0.164236,-0.09528 0,-0.09172 0.04172,-0.147051 0.154219,-0.204542 0.160368,-0.08194 0.296728,-0.08149 2.377571,0.0079 0.8803514,0.03783 0.8778943,0.03621 1.4611854,0.954082 0.7299841,1.148706 1.1226729,1.489 1.7711562,1.534847 0.4067546,0.02876 0.4901976,-0.01912 0.4508442,-0.258787 -0.033866,-0.206225 0.040206,-0.244177 0.3075752,-0.157603 0.1246319,0.04037 0.1996883,0.09697 0.211787,0.159753 0.01033,0.05349 0.093644,0.179375 0.1852023,0.279741 0.091554,0.100372 0.1664667,0.214167 0.1664667,0.252875 0,0.118886 -0.1577421,0.175713 -0.3936687,0.141822 -0.121792,-0.0175 -0.4982347,-0.0355 -0.8365416,-0.03996 z m -23.4255047,-1.100692 c -0.04049,-0.07473 -0.08531,-0.094 -0.169895,-0.07302 -0.0632,0.01567 -0.166565,0.0081 -0.2297,-0.01699 -0.104137,-0.04122 -0.105657,-0.04614 -0.01638,-0.05265 0.587801,-0.04295 0.713524,-0.04493 0.713524,-0.01121 0,0.06303 -0.149043,0.255364 -0.197899,0.255364 -0.02457,0 -0.06943,-0.04569 -0.09967,-0.101523 z m 16.838798,-3.430821 c -0.279629,-0.02891 -0.302469,-0.04026 -0.302469,-0.150438 0,-0.113578 0.01103,-0.117934 0.233741,-0.09223 0.128558,0.01486 0.469203,0.04067 0.756988,0.05748 0.483502,0.02819 0.521379,0.03758 0.498646,0.123471 -0.02185,0.08258 -0.0726,0.09296 -0.454519,0.09296 -0.236453,0 -0.566027,-0.01405 -0.732387,-0.03124 z m 5.0850769,-1.820045 c -0.018272,-0.08215 -0.097743,-0.290024 -0.1766306,-0.461949 -0.1298872,-0.283068 -0.1573271,-0.312592 -0.2905675,-0.312592 -0.1251422,0 -0.1471332,0.01866 -0.1471332,0.124764 0,0.06862 0.025351,0.171549 0.056307,0.228731 0.03099,0.05719 0.084328,0.208923 0.1185704,0.337191 l 0.062258,0.233219 -0.9225243,0 c -0.5073871,0 -1.4930291,-0.0145 -2.1903181,-0.03225 l -1.26779,-0.03225 0.01733,-0.960568 c 0.0095,-0.528315 0.02934,-0.97248 0.04409,-0.987029 2.233108,-0.105377 4.1412127,-0.580634 4.8519292,0.894061 0.2760986,0.574791 0.5036995,1.061482 0.5057941,1.081538 0.00208,0.02008 -0.138372,0.03646 -0.3121429,0.03646 -0.312674,0 -0.3162868,-0.0015 -0.3491422,-0.149364 z m -10.1474219,-0.06333 c -1.386492,-0.06019 -2.535456,-0.12383 -2.553254,-0.141421 -0.01111,-0.780064 0.02576,-1.69516 0.205301,-2.051003 2.282016,-0.315755 3.897549,-0.05249 6.54425,0.324575 0.02379,0.02348 -0.234572,1.417198 -0.357673,1.929635 l -0.02798,0.116544 -0.644866,-0.03444 c -0.354677,-0.01896 -1.779272,-0.08369 -3.165763,-0.143887 z m -7.267519,-0.346952 c -1.64871,-0.06667 -3.002675,-0.126671 -3.008807,-0.133329 -0.01733,-0.01881 0.216812,-2.135993 0.238589,-2.157515 0.01061,-0.01044 1.224153,0.0138 2.696754,0.05394 1.738256,0.308672 4.12034,-0.217047 3.61692,0.985224 -0.01765,0.501458 -0.04456,1.015681 -0.05982,1.142721 l -0.02774,0.230972 -0.229123,-4.4e-4 c -0.126019,-1.58e-4 -1.578069,-0.05494 -3.226779,-0.12161 z m 13.713236,-2.066996 c -5.068163,-0.403044 -10.597937,-0.497544 -15.014754,-0.590502 -2.456881,-0.05645 -2.630035,-0.05501 -2.687281,0.02236 1.162829,-4.1057 14.80128,-2.850766 18.944093,-1.776235 0.327534,0.133562 0.438795,0.08475 0.788246,0.615608 1.9433759,2.81319 0.5738673,1.482955 -2.030304,1.728771 z m 5.633908,2.640595 c 0.1403803,-0.02627 0.1382197,-0.05952 -0.013086,-0.201347 -0.067159,-0.06294 -0.2646049,-0.347409 -0.4387664,-0.63214 -0.8497189,-1.596902 -0.2166429,0.500941 0.2919251,0.848249 0.027078,0.0031 0.099027,-0.0036 0.1599235,-0.01476 z"
       style="fill:#01005d;fill-opacity:1"
       sodipodi:nodetypes="sssssssssssssssssssssssscsssssscsssscsssscssssssssssssssssssssscsccssssccssssssssssscssssssssssssssssscssssssssssssssscsssssssssssssssssssssssssssssssssssssssssssscsscscccssscccscsscscccscccccccsscccccccccccc">
      <animateMotion
         keyTimes="0; 0.20; 1"
         keyPoints="0; 0.33; 1"
         repeatCount="indefinite"
         additive="sum"
         rotate="0"
         begin="0s"
         dur="30s"
         calcMode="linear"
         id="animateMotion2680">
        <mpath
           xlink:href="#motion_path"
           id="mpath2682" />
      </animateMotion>
    </path>
    <path
       style="fill:none;stroke:#ff0000;stroke-width:0;stroke-linecap:butt;stroke-linejoin:miter;stroke-opacity:1;stroke-miterlimit:4;stroke-dasharray:none"
       d="m 553.13901,211.39495 c -36.33037,-10.39688 -79.95997,-25.24699 -117.02982,-35.85018 -68.4268,-19.57229 -147.26565,-28.57714 -199.6903,-32.0879 -65.39483,-4.37934 -173.186564,22.84526 -269.425004,96.0848"
       id="motion_path02"
       inkscape:connector-curvature="0"
       sodipodi:nodetypes="cssc"
       inkscape:label="#path1194" />
    <path
       sodipodi:nodetypes="sssssssssssssssssssssssscsssssscsssscsssscssssssssssssssssssssscsccssssccssssssssssscssssssssssssssssscssssssssssssssscsssssssssssssssssssssssssssssssssssssssssssscsscscccssscccscsscscccscccccccsscccccccccccc"
       style="fill:#8e0024;fill-opacity:1;stroke:#e23700;stroke-width:0;stroke-miterlimit:4;stroke-opacity:1;stroke-dasharray:none"
       d="m -27.140451,-16.299695 c -0.691984,-0.188223 -1.169976,-0.752005 -1.169976,-1.379967 0,-0.329477 0.12459,-1.08706 0.203951,-1.240146 0.163668,-0.315715 0.706108,-0.682871 1.22712,-0.830587 0.399174,-0.113171 1.230745,-0.09587 1.50858,0.03139 0.7886,0.361208 1.085192,1.634033 0.599825,2.574174 -0.148656,0.287941 -0.521781,0.664291 -0.793497,0.800348 -0.207219,0.103765 -0.294682,0.116234 -0.788308,0.112365 -0.305378,-0.0025 -0.659841,-0.03281 -0.787695,-0.06758 z m 1.437891,-0.195429 c 0.481477,-0.241099 0.738489,-0.568812 0.912017,-1.162914 0.152002,-0.520399 -0.06175,-1.374292 -0.301197,-1.203214 -0.02461,0.01759 -0.04474,0.25079 -0.04474,0.518233 0,0.431239 -0.01564,0.519263 -0.138167,0.777883 -0.232839,0.491427 -0.356874,0.585658 -0.929968,0.706482 -0.291682,0.06149 -0.455136,0.06989 -0.708087,0.03641 -0.412684,-0.05464 -0.511983,0.0082 -0.290761,0.183969 0.172105,0.136756 0.573349,0.237169 0.829588,0.207605 0.09868,-0.01136 0.179412,-0.0031 0.179412,0.01816 0,0.07853 0.255959,0.03555 0.491906,-0.08261 z m 14.516654,0.192392 c -0.553797,-0.152539 -1.04955,-0.551125 -1.287991,-1.035549 -0.141842,-0.28817 -0.143067,-0.873945 -0.0033,-1.643648 0.05269,-0.290466 0.09356,-0.637531 0.09082,-0.77125 l -0.005,-0.243132 -0.221435,-0.01323 c -0.295782,-0.0177 -0.483314,0.102481 -0.758816,0.486149 -0.460848,0.64178 -0.355607,0.591962 -1.357146,0.64248 -1.414269,0.07135 -1.61836,0.08211 -1.919129,0.101224 -0.175919,0.01115 -1.526687,0.03448 -3.001712,0.05179 -1.475021,0.01729 -2.980795,0.04534 -3.346171,0.06229 l -0.664311,0.03083 -0.01498,0.127511 c -0.0093,0.07917 0.01304,0.138137 0.05894,0.155536 0.129204,0.04898 6.64134,-0.06212 8.064506,-0.137609 0.751814,-0.03986 1.520732,-0.0725 1.7087,-0.0725 l 0.34176,0 0.235029,-0.372633 c 0.291168,-0.46163 0.53955,-0.745772 0.651928,-0.745772 0.118944,0 -0.697981,1.226059 -0.8496,1.275091 -0.340887,0.110241 -8.237042,0.32281 -10.072547,0.271161 l -0.51595,-0.0145 -0.02975,-0.170195 c -0.01634,-0.09361 -0.06651,-0.254918 -0.111459,-0.35848 -0.04494,-0.103556 -0.08171,-0.221301 -0.08171,-0.261652 0,-0.04037 -0.110723,-0.297398 -0.246046,-0.571211 -0.135323,-0.273818 -0.246041,-0.519203 -0.246041,-0.545298 0,-0.02611 -0.03876,-0.08091 -0.08611,-0.121787 -0.0755,-0.06517 -0.255872,-0.06897 -1.463198,-0.03088 -0.977482,0.03088 -1.393204,0.06082 -1.432639,0.103262 -0.03054,0.03286 -0.267152,0.388018 -0.525778,0.789186 -0.533036,0.826819 -0.967605,1.308095 -1.363903,1.510506 -0.266696,0.136214 -0.284765,0.138451 -1.238605,0.152934 -0.581258,0.0088 -1.021041,-0.0052 -1.100826,-0.03524 -0.119183,-0.04478 -0.129084,-0.0661 -0.09611,-0.206925 0.02025,-0.08635 0.05274,-0.266414 0.07226,-0.400139 0.01955,-0.133719 0.05809,-0.297834 0.0857,-0.364696 0.07532,-0.182427 0.122656,-0.715448 0.138179,-1.556044 0.0077,-0.41454 0.04021,-0.863118 0.07235,-0.996842 0.03214,-0.133724 0.131677,-0.741493 0.221198,-1.350594 0.08953,-0.609111 0.189879,-1.139748 0.223014,-1.179191 0.03313,-0.03945 0.122653,-0.07173 0.198935,-0.07173 0.07628,0 0.152418,-0.02196 0.169191,-0.04878 0.02029,-0.03241 0.06246,-0.03185 0.125924,0.0015 0.115661,0.06117 0.246691,0.0025 0.350896,-0.15764 0.03991,-0.06126 0.258658,-0.515859 0.486106,-1.010223 0.634134,-1.22288 1.235392,-2.596194 2.118744,-3.675603 0.544028,-0.649999 0.825225,-0.807735 1.888294,-1.059245 1.480437,-0.35025 3.829382,-0.657527 5.739466,-0.808863 1.234988,-0.09785 3.833932,-0.113089 5.196643,-0.0281 1.801336,0.11238 3.431869,0.439738 4.762617,0.778086 1.3922899,0.353996 1.5040419,0.393531 1.8723279,0.662384 0.845599,0.895217 1.69247,2.332547 2.065896,3.38903 0.366632,1.106859 0.504189,2.234392 0.546884,4.482805 0.03136,1.650849 0.03346,1.677036 0.147026,1.842434 0.07902,0.115058 0.115224,0.237225 0.115224,0.388754 0,0.200555 -0.02202,0.241956 -0.238371,0.448019 -0.26216,0.2497 -0.737592,0.45768 -1.370615,0.599584 -0.345147,0.07737 -0.703807,0.104951 -0.703807,0.05412 0,-0.01389 0.05564,-0.11237 0.123635,-0.218816 0.133426,-0.208858 0.249873,-0.259934 0.204861,-0.08986 -0.02604,0.09843 -0.01473,0.102198 0.223729,0.07429 0.305423,-0.03576 0.927956,-0.237382 1.190046,-0.385457 0.402072,-0.227159 0.488922,-0.534056 0.24156,-0.853574 l -0.138516,-0.178918 -0.03227,-1.847803 c -0.03448,-1.974327 -0.0905,-2.597207 -0.316146,-3.515742 -0.110859,-0.45127 -0.193714,-0.694524 -0.321901,-0.945065 -0.02375,-0.04645 -0.0432,-0.117558 -0.0432,-0.158041 0,-0.04046 -0.01913,-0.0736 -0.04252,-0.0736 -0.02338,0 -0.08018,-0.09745 -0.126211,-0.21654 -0.04916,-0.127218 -0.1245,-0.229345 -0.182627,-0.247575 -0.144944,-0.04549 -0.16345,0.0025 -0.07335,0.19012 0.04414,0.09192 0.08026,0.204207 0.08026,0.249527 0,0.04534 0.0314,0.140484 0.06978,0.211469 0.13298,0.245977 0.36552,1.201835 0.445436,1.830993 0.04417,0.347678 0.09167,0.675909 0.105562,0.729399 0.01391,0.05349 0.04281,0.9397 0.06425,1.969367 0.03465,1.664154 0.04896,1.892327 0.128788,2.05409 0.08874,0.17982 0.08853,0.183309 -0.01753,0.294893 -0.05904,0.06211 -0.107352,0.13844 -0.107352,0.169637 0,0.08059 -0.334031,0.136879 -1.120315,0.188806 l -0.406792,0.02688 -0.464016,-0.467564 c -0.424981,-0.428227 -0.611422,-0.545739 -0.683364,-0.430711 -0.01267,0.02028 0.02884,0.157026 0.09224,0.303914 0.427298,0.989905 0.187512,2.177764 -0.539362,2.671955 -0.461671,0.313879 -1.2447239,0.455352 -1.7500199,0.316172 z m 1.125335,-0.248468 c 0.4933509,-0.133805 0.8002139,-0.398302 1.0351479,-0.892225 0.110608,-0.232539 0.126546,-0.327749 0.122138,-0.729399 -0.0033,-0.312023 -0.03284,-0.532965 -0.09062,-0.680771 -0.04705,-0.120347 -0.112945,-0.344965 -0.146422,-0.499146 -0.05111,-0.23541 -0.04953,-0.296339 0.0099,-0.380184 0.06363,-0.08977 0.102587,-0.09648 0.386163,-0.06648 0.294049,0.03114 0.313185,0.02723 0.282773,-0.05746 -0.07634,-0.21258 -0.223725,-0.30965 -0.470132,-0.30965 -0.201058,0 -0.265922,0.0251 -0.416117,0.161133 -0.156722,0.141929 -0.177396,0.187564 -0.173429,0.382862 0.0025,0.121944 0.06322,0.372191 0.135002,0.556104 0.247382,0.63388 0.128302,1.387821 -0.284901,1.803867 -0.323274,0.325492 -0.6327589,0.424373 -1.3057029,0.417162 -0.304834,-0.0031 -0.553596,0.014 -0.553596,0.03838 0,0.0244 0.04627,0.04432 0.102838,0.04432 0.05656,0 0.167051,0.06018 0.245531,0.133725 0.219354,0.205551 0.562464,0.229334 1.12143,0.07774 z m -20.513441,-1.303221 c 0.445915,-0.006 0.665574,-0.02997 0.798596,-0.08743 0.40415,-0.174607 1.015383,-0.88396 1.574485,-1.827225 0.201939,-0.3407 0.337467,-0.517118 0.421519,-0.548696 0.151726,-0.057 2.66841,-0.153861 2.896961,-0.111493 0.151776,0.02815 0.164236,0.02089 0.164236,-0.09528 0,-0.09172 -0.04172,-0.147051 -0.154219,-0.204542 -0.160368,-0.08194 -0.296728,-0.08149 -2.377571,0.0079 -0.880352,0.03783 -0.877894,0.03621 -1.461186,0.954082 -0.729984,1.148706 -1.122672,1.489 -1.771156,1.534847 -0.406754,0.02876 -0.490197,-0.01912 -0.450844,-0.258787 0.03387,-0.206225 -0.04021,-0.244177 -0.307575,-0.157603 -0.124632,0.04037 -0.199688,0.09697 -0.211787,0.159753 -0.01033,0.05349 -0.09364,0.179375 -0.185202,0.279741 -0.09155,0.100372 -0.166467,0.214167 -0.166467,0.252875 0,0.118886 0.157742,0.175713 0.393669,0.141822 0.121792,-0.0175 0.498234,-0.0355 0.836541,-0.03996 z m 23.4255049,-1.100692 c 0.04049,-0.07473 0.08531,-0.094 0.169895,-0.07302 0.0632,0.01567 0.166565,0.0081 0.2297,-0.01699 0.104137,-0.04122 0.105657,-0.04614 0.01638,-0.05265 -0.587801,-0.04295 -0.713524,-0.04493 -0.713524,-0.01121 0,0.06303 0.149043,0.255364 0.197899,0.255364 0.02457,0 0.06943,-0.04569 0.09967,-0.101523 z m -16.8387979,-3.430821 c 0.279629,-0.02891 0.302469,-0.04026 0.302469,-0.150438 0,-0.113578 -0.01103,-0.117934 -0.233741,-0.09223 -0.128558,0.01486 -0.469203,0.04067 -0.756988,0.05748 -0.483502,0.02819 -0.521379,0.03758 -0.498646,0.123471 0.02185,0.08258 0.0726,0.09296 0.454519,0.09296 0.236453,0 0.566027,-0.01405 0.732387,-0.03124 z m -5.085077,-1.820045 c 0.01827,-0.08215 0.09774,-0.290024 0.176631,-0.461949 0.129887,-0.283068 0.157327,-0.312592 0.290567,-0.312592 0.125142,0 0.147133,0.01866 0.147133,0.124764 0,0.06862 -0.02535,0.171549 -0.05631,0.228731 -0.03099,0.05719 -0.08433,0.208923 -0.11857,0.337191 l -0.06226,0.233219 0.922524,0 c 0.507387,0 1.493029,-0.0145 2.190318,-0.03225 l 1.26779,-0.03225 -0.01733,-0.960568 c -0.0095,-0.528315 -0.02934,-0.97248 -0.04409,-0.987029 -2.233108,-0.105377 -4.141212,-0.580634 -4.851929,0.894061 -0.276099,0.574791 -0.503699,1.061482 -0.505794,1.081538 -0.0021,0.02008 0.138372,0.03646 0.312143,0.03646 0.312674,0 0.316287,-0.0015 0.349142,-0.149364 z m 10.147422,-0.06333 c 1.386492,-0.06019 2.535456,-0.12383 2.553254,-0.141421 0.01111,-0.780064 -0.02576,-1.69516 -0.205301,-2.051003 -2.282016,-0.315755 -3.897549,-0.05249 -6.54425,0.324575 -0.02379,0.02348 0.234572,1.417198 0.357673,1.929635 l 0.02798,0.116544 0.644866,-0.03444 c 0.354677,-0.01896 1.779272,-0.08369 3.165763,-0.143887 z m 7.267519,-0.346952 c 1.64871,-0.06667 3.0026749,-0.126671 3.0088069,-0.133329 0.01733,-0.01881 -0.216812,-2.135993 -0.238589,-2.157515 -0.01061,-0.01044 -1.2241529,0.0138 -2.6967539,0.05394 -1.738256,0.308672 -4.12034,-0.217047 -3.61692,0.985224 0.01765,0.501458 0.04456,1.015681 0.05982,1.142721 l 0.02774,0.230972 0.229123,-4.4e-4 c 0.126019,-1.58e-4 1.578069,-0.05494 3.226779,-0.12161 z m -13.713236,-2.066996 c 5.068163,-0.403044 10.597937,-0.497544 15.014754,-0.590502 2.4568809,-0.05645 2.6300349,-0.05501 2.6872809,0.02236 -1.162829,-4.1057 -14.8012799,-2.850766 -18.9440929,-1.776235 -0.327534,0.133562 -0.438795,0.08475 -0.788246,0.615608 -1.943376,2.81319 -0.573867,1.482955 2.030304,1.728771 z m -5.633908,2.640595 c -0.14038,-0.02627 -0.13822,-0.05952 0.01309,-0.201347 0.06716,-0.06294 0.264605,-0.347409 0.438766,-0.63214 0.849719,-1.596902 0.216643,0.500941 -0.291925,0.848249 -0.02708,0.0031 -0.09903,-0.0036 -0.159923,-0.01476 z"
       id="car02"
       inkscape:connector-curvature="0">
      <animateMotion
         id="animateMotion3763"
         calcMode="linear"
         dur="20s"
         begin="0s"
         rotate="0"
         additive="sum"
         repeatCount="indefinite"
         keyPoints="0; 0.33; 1"
         keyTimes="0; 0.20; 1">
        <mpath
           id="mpath3765"
           xlink:href="#motion_path02" />
      </animateMotion>
    </path>
  </g>
</svg>
