<svg width="100%" height="100%" viewBox="0 0 620 700"
     xmlns="http://www.w3.org/2000/svg" 
     xmlns:xlink="http://www.w3.org/1999/xlink">

  <desc>
    Drinking Bird Animated
    
    Original Work: https://openclipart.org/detail/299013/drinking-bird
    
    Jay Nick
    STEAMcoded.org
  </desc>
  
  <defs>
    <linearGradient id="Gradient_1" gradientUnits="userSpaceOnUse" x1="293.715" y1="207.012" x2="300.469" y2="192.54">
      <stop offset="0" stop-color="#655C4B"/>
      <stop offset="0.236" stop-color="#BDB7AC"/>
      <stop offset="0.371" stop-color="#F3F1E8"/>
      <stop offset="0.562" stop-color="#CFD0C1"/>
      <stop offset="0.989" stop-color="#F3F1E8"/>
      <stop offset="1" stop-color="#F3F1E8"/>
    </linearGradient>
    <linearGradient id="Gradient_2" gradientUnits="userSpaceOnUse" x1="434.14" y1="176.784" x2="536.174" y2="326.674">
      <stop offset="0" stop-color="#EB9074"/>
      <stop offset="0.5" stop-color="#DF513E"/>
      <stop offset="1" stop-color="#BA262E"/>
    </linearGradient>
    <linearGradient id="Gradient_3" gradientUnits="userSpaceOnUse" x1="333.629" y1="297.534" x2="399.29" y2="204.085">
      <stop offset="0" stop-color="#FFFFFE"/>
      <stop offset="0.003" stop-color="#FFFFFE"/>
      <stop offset="0.631" stop-color="#FFFCE5"/>
      <stop offset="1" stop-color="#F6DBAC"/>
    </linearGradient>
    <clipPath id="Clip_1">
      <path d="M540.9 331.94c-1.93-4.05-3.97-7.7-6.16-11.02-1.93-6.27-3.88-10.35-3.87-10.35l-3.47 1.05c-15.09-15.95-36.12-21.55-67.68-28.85-10.32-2.41-18.4-5.83-24.7-9.99 23.02 1.66 52.4 5.99 65.85 11.41 22.52 9.07 35.69 28.21 40.04 47.75z"/>
    </clipPath>
    <linearGradient id="Gradient_4" gradientUnits="userSpaceOnUse" x1="333.629" y1="297.534" x2="399.29" y2="204.085">
      <stop offset="0" stop-color="#7896C1"/>
      <stop offset="0.003" stop-color="#7896C1"/>
      <stop offset="0.631" stop-color="#7A96BB"/>
      <stop offset="1" stop-color="#7C8EA8"/>
    </linearGradient>
    <linearGradient id="Gradient_5" gradientUnits="userSpaceOnUse" x1="333.629" y1="297.534" x2="399.29" y2="204.085">
      <stop offset="0" stop-color="#777776"/>
      <stop offset="0.003" stop-color="#777776"/>
      <stop offset="0.631" stop-color="#767773"/>
      <stop offset="1" stop-color="#747268"/>
    </linearGradient>
    <linearGradient id="Gradient_6" gradientUnits="userSpaceOnUse" x1="292.214" y1="212.691" x2="305.442" y2="193.865">
      <stop offset="0" stop-color="#655C4B"/>
      <stop offset="0.236" stop-color="#BDB7AC"/>
      <stop offset="0.371" stop-color="#F3F1E8"/>
      <stop offset="0.562" stop-color="#CFD0C1"/>
      <stop offset="0.989" stop-color="#F3F1E8"/>
      <stop offset="1" stop-color="#F3F1E8"/>
    </linearGradient>
    <linearGradient id="Gradient_7" gradientUnits="userSpaceOnUse" x1="333.629" y1="297.534" x2="399.29" y2="204.085">
      <stop offset="0" stop-color="#547EB2"/>
      <stop offset="0.003" stop-color="#547EB2"/>
      <stop offset="0.631" stop-color="#557EAF"/>
      <stop offset="1" stop-color="#577AA6"/>
    </linearGradient>
    <linearGradient id="Gradient_8" gradientUnits="userSpaceOnUse" x1="333.629" y1="297.534" x2="399.29" y2="204.085">
      <stop offset="0" stop-color="#3C71AA"/>
      <stop offset="0.003" stop-color="#3C71AA"/>
      <stop offset="0.631" stop-color="#3D71A9"/>
      <stop offset="1" stop-color="#3E70A6"/>
    </linearGradient>
    <linearGradient id="Gradient_9" gradientUnits="userSpaceOnUse" x1="333.629" y1="297.534" x2="399.29" y2="204.085">
      <stop offset="0" stop-color="#4E74A1"/>
      <stop offset="0.003" stop-color="#4E74A1"/>
      <stop offset="0.631" stop-color="#4F74A0"/>
      <stop offset="1" stop-color="#50729D"/>
    </linearGradient>
    <linearGradient id="Gradient_10" gradientUnits="userSpaceOnUse" x1="333.629" y1="297.534" x2="399.29" y2="204.085">
      <stop offset="0" stop-color="#D4DDE8"/>
      <stop offset="0.003" stop-color="#D4DDE8"/>
      <stop offset="0.631" stop-color="#D4DDE7"/>
      <stop offset="1" stop-color="#D4DBE5"/>
    </linearGradient>
    <linearGradient id="Gradient_11" gradientUnits="userSpaceOnUse" x1="333.629" y1="297.534" x2="399.29" y2="204.085">
      <stop offset="0" stop-color="#CFD7E5"/>
      <stop offset="0.003" stop-color="#CFD7E5"/>
      <stop offset="0.631" stop-color="#CFD7E5"/>
      <stop offset="1" stop-color="#CFD7E4"/>
    </linearGradient>
    <linearGradient id="Gradient_12" gradientUnits="userSpaceOnUse" x1="333.629" y1="297.534" x2="399.29" y2="204.085">
      <stop offset="0" stop-color="#D0D8E3"/>
      <stop offset="0.003" stop-color="#D0D8E3"/>
      <stop offset="0.631" stop-color="#D0D8E3"/>
      <stop offset="1" stop-color="#D0D7E2"/>
    </linearGradient>
    <radialGradient id="Gradient_13" gradientUnits="userSpaceOnUse" cx="328.499" cy="220.969" r="11.695">
      <stop offset="0" stop-color="#A7AAAD"/>
      <stop offset="0.006" stop-color="#A7AAAD"/>
      <stop offset="0.354" stop-color="#A2A29C"/>
      <stop offset="0.674" stop-color="#7B8486"/>
      <stop offset="1" stop-color="#5F686A"/>
    </radialGradient>
    <linearGradient id="Gradient_14" gradientUnits="userSpaceOnUse" x1="216.658" y1="441.355" x2="33.924" y2="441.355">
      <stop offset="0" stop-color="#F4F4F4"/>
      <stop offset="0.5" stop-color="#DCDEE2"/>
      <stop offset="1" stop-color="#C7CBD2"/>
    </linearGradient>
    <linearGradient id="Gradient_15" gradientUnits="userSpaceOnUse" x1="216.658" y1="441.355" x2="33.924" y2="441.355">
      <stop offset="0" stop-color="#F8F7F8"/>
      <stop offset="0.5" stop-color="#EAEAED"/>
      <stop offset="1" stop-color="#DBDEE2"/>
    </linearGradient>
    
    <clipPath id="cp1">
      <path d="M401.73 299.36c1.89 3.63 3.77 7.96 5.95 12.93 6.7 15.39 15.88 36.45 33.97 56.72 20.33 22.72 49.17 24.21 67.7 18.58 11.38-3.46 20.76-9.79 26.41-17.81 8.18-11.66 10.17-29.38 5.18-46.27-5.71-19.32-19.49-34.63-37.78-42.02-16.36-6.59-58.53-11.95-82.54-11.99-15.25-0.04-32.94-11.25-38.77-14.93-0.61-0.41-1.08-0.7-1.35-0.88l-0.17-0.01-0.43-0.28-175.21-123.13c-2.29-1.63-5.7-1.04-7.32 1.27-1.67 2.38-1.09 5.66 1.28 7.34l176.43 123.98c20.15 15.16 25.98 34.15 26.65 36.5"/>
    </clipPath>

  </defs>
  
  <style type="text/css"><![CDATA[
    @keyframes a1 { from {transform:rotate(-40deg)} to {transform:rotate(55deg)} }
    .animate {animation:a1 3s cubic-bezier(0.4,1.2,0.8,1) infinite alternate;transform-origin:305px 205px;}
    .animate1 {animation:a1 3s cubic-bezier(0.4,1.2,0.8,1) infinite alternate;transform-origin:305px 205px;clip-path:url(#cp1);}
    @keyframes a2 { from {transform:rotate(40deg);} to {transform:rotate(-55deg);} }
    .animate2 {animation:a2 3s cubic-bezier(0.4,1.2,0.8,1) infinite alternate;transform-origin:460px 320px;}
  ]]>
  </style>

  <g transform="translate(15,113)">
    <path style="fill:#9C0D5C;" d="M219.82 575.04l-66.73-34.72 114.35-40.8 78.3 58.81-125.92 16.71"/>
    <path style="fill:#1A1919;" d="M157.9 540.64l62.26 32.39 120.65-16.01-73.7-55.33-109.21 38.95m61.92 36.32c-0.33 0-0.64-0.08-0.91-0.2l-66.72-34.74c-0.68-0.36-1.08-1.07-1.04-1.82 0.06-0.77 0.56-1.45 1.29-1.69l114.36-40.81c0.59-0.22 1.28-0.14 1.8 0.26l78.3 58.83c0.63 0.47 0.91 1.28 0.71 2.02-0.19 0.78-0.83 1.34-1.63 1.44l-125.93 16.7-0.23 0.01"/>
    <path style="fill:#D0C76E;" d="M282.32 463.42l11.56-100.29c0 0-27.01-62.58-19.27-89.14 7.71-26.59 31.38-94.09 8.94-111.44-22.47-17.37-60.87-7.85-61.02 53.98-0.27 92.62 35.55 158.16 35.55 158.16l0.11 98.4 24.13-9.67"/>
    <path style="fill:#1A1919;" d="M261.75 156.76c-17.95 0-37.19 15.72-37.3 59.78-0.24 91.01 34.97 156.61 35.32 157.25l0.23 0.41 0.12 96.03 20.4-8.16 11.38-98.65c-2.66-6.29-26.7-63.98-19.16-89.97 0.81-2.74 1.77-5.91 2.83-9.42 9.05-29.77 25.91-85.21 6.8-99.97-6.07-4.69-13.41-7.3-20.62-7.3m-5.47 319.16l-0.14-100.73c-3.1-5.97-35.78-70.57-35.55-158.66 0.13-46.95 22.25-63.63 41.16-63.63 8.06 0 16.24 2.88 22.98 8.11 21.2 16.4 4.51 71.33-5.47 104.16-1.06 3.47-2.02 6.64-2.8 9.37-7.44 25.59 18.93 87.22 19.19 87.83l0.22 0.48-0.06 0.5-11.73 101.46-27.8 11.11"/>
    <path style="fill:#C51473;" d="M243.74 409.15l50.14 0c0 0-7.7 44.38 0 67.51 7.73 23.14 17.36 30.86 17.36 54.02l0 9.64-158.15 0c0 0-7.73-46.3 13.51-52.08 10.52-2.88 23.11-1.4 34.84 0.07 11.91 1.5 22.95 2.99 30.04-0.07 26.72-11.55 12.27-79.09 12.26-79.09"/>
    <path style="fill:#1A1919;" d="M154.76 538.4l154.56 0 0-7.72c0-14.55-3.88-22.73-8.8-33.11-2.68-5.63-5.71-12.03-8.46-20.29-6.88-20.6-1.91-56.74-0.44-66.2l-45.53 0c2.34 12.34 11.44 68.02-13.85 78.93-3.03 1.31-6.88 1.94-11.77 1.94-5.52 0-11.75-0.79-18.33-1.61-7.1-0.9-14.46-1.8-21.48-1.8-5.24 0-9.68 0.49-13.56 1.55-17.21 4.69-13.43 40.26-12.34 48.31m156.48 3.84l-158.15 0c-0.95 0-1.74-0.67-1.9-1.61-0.34-1.95-7.76-48.07 14.88-54.25 4.22-1.16 8.99-1.72 14.59-1.72 7.27 0 14.73 0.93 21.96 1.85 6.45 0.83 12.56 1.59 17.85 1.58 4.35 0 7.73-0.53 10.23-1.64 24.97-10.77 11.29-76.23 11.15-76.88-0.11-0.58 0.03-1.17 0.39-1.63 0.37-0.44 0.91-0.71 1.5-0.71l50.14 0c0.56 0 1.11 0.26 1.48 0.68 0.37 0.45 0.52 1.02 0.44 1.58-0.08 0.42-7.57 44.16-0.07 66.57 2.67 8.05 5.64 14.34 8.29 19.87 4.92 10.38 9.16 19.31 9.15 34.75l0 9.64c0 1.05-0.87 1.92-1.93 1.92"/>
    <path style="fill:url(#Gradient_1);" d="M286.19 205.12l-26.76-12.06c-0.92-0.42-1.65-1.2-2.01-2.14-0.37-0.96-0.34-2.02 0.1-2.96 0.35-0.79 0.94-1.42 1.68-1.81l26.99 18.97z"/>
    <path style="fill:#1A1919;" d="M261.02 185.69c-1.51 0-2.89 0.88-3.5 2.27-0.44 0.94-0.47 2-0.1 2.96 0.36 0.94 1.09 1.72 2.01 2.14l67.49 30.42c1.9 0.88 4.25-0.06 5.1-1.92 0.44-0.94 0.45-1.98 0.1-2.95-0.37-0.97-1.08-1.74-2.04-2.15l-67.46-30.42c-0.51-0.22-1.06-0.34-1.6-0.35m67.49 42.01c-1.11 0-2.18-0.24-3.17-0.69l-67.48-30.42c-1.88-0.86-3.32-2.38-4.06-4.31-0.73-1.91-0.66-4.02 0.18-5.9 1.72-3.78 6.43-5.59 10.21-3.86l67.5 30.43c1.88 0.82 3.3 2.36 4.04 4.28 0.73 1.93 0.65 4.03-0.18 5.92-1.25 2.77-4.02 4.56-7.04 4.55"/>

  <g id="bird" style="display:initial;" class="animate">
    <path style="fill:url(#Gradient_3);" d="M401.73 299.36c1.89 3.63 3.77 7.96 5.95 12.93 6.7 15.39 15.88 36.45 33.97 56.72 20.33 22.72 49.17 24.21 67.7 18.58 11.38-3.46 20.76-9.79 26.41-17.81 8.18-11.66 10.17-29.38 5.18-46.27-5.71-19.32-19.49-34.63-37.78-42.02-16.36-6.59-58.53-11.95-82.54-11.99-15.25-0.04-32.94-11.25-38.77-14.93-0.61-0.41-1.08-0.7-1.35-0.88l-0.17-0.01-0.43-0.28-175.21-123.13c-2.29-1.63-5.7-1.04-7.32 1.27-1.67 2.38-1.09 5.66 1.28 7.34l176.43 123.98c20.15 15.16 25.98 34.15 26.65 36.5"/>
    <path style="fill:#1A1919;" d="M401.73 299.36c1.89 3.63 3.77 7.96 5.95 12.93 6.7 15.39 15.88 36.45 33.97 56.72 20.33 22.72 49.17 24.21 67.7 18.58 11.38-3.46 20.76-9.79 26.41-17.81 8.18-11.66 10.17-29.38 5.18-46.27-5.71-19.32-19.49-34.63-37.78-42.02-16.36-6.59-58.53-11.95-82.54-11.99-15.25-0.04-32.94-11.25-38.77-14.93-0.61-0.41-1.08-0.7-1.35-0.88l-0.17-0.01-0.43-0.28-175.21-123.13c-2.29-1.63-5.7-1.04-7.32 1.27-1.67 2.38-1.09 5.66 1.28 7.34l176.43 123.98c20.15 15.16 25.98 34.15 26.65 36.5m108.76 91.91c-19.63 5.98-50.18 4.39-71.71-19.67-18.51-20.73-27.84-42.14-34.66-57.76-2.17-5.02-4.04-9.31-5.91-12.86l-0.12-0.21-0.04-0.2c-0.05-0.19-5.33-19.63-25.26-34.59l-176.36-123.94c-4.12-2.91-5.11-8.59-2.21-12.7 2.8-3.99 8.71-5.04 12.69-2.24l175.02 123c0.38 0.18 0.94 0.53 2.01 1.22 5.56 3.53 22.54 14.29 36.71 14.32 21.38 0.04 65.79 4.95 83.93 12.27 19.41 7.84 33.98 24.05 40.04 44.5 5.33 18 3.14 36.98-5.72 49.58-6.13 8.75-16.23 15.6-28.41 19.28"/>
    <g clip-path="url(#Clip_1)">
      <path style="fill:#EEA67C;" d="M541.41 272.43l0 60.29-106.92 0 0-60.29 106.92 0z"/>
    </g>
    <path style="fill:url(#Gradient_7);" d="M471.39 328.63l-251.04-176.4 3.86-5.47 255.31 179.4-8.13 2.47z"/>
    <path style="fill:url(#Gradient_5);" d="M469.04 329.34l-89.63-62.98c-1.36-1.18-2.81-2.35-4.33-3.5l-157.03-110.35c-0.01-0.21 0.04-0.43 0.16-0.61l4.96-7.05c0.15-0.2 0.37-0.34 0.63-0.39 0.06-0.01 0.12-0.02 0.18-0.02 0.19 0 0.39 0.05 0.55 0.16l257.34 180.84-2.35 0.72-255.31-179.4-3.86 5.47 251.04 176.4-2.35 0.71z"/>
    <path style="fill:#1A1919;" d="M379.41 266.36l-160.95-113.1c-0.26-0.18-0.4-0.46-0.41-0.75l157.03 110.35c1.52 1.15 2.96 2.31 4.33 3.5"/>
    <path style="fill:#F3B229;" d="M171.75 57.76c-20.78-14.62-49.49-9.59-64.1 11.19-14.59 20.79-9.61 49.48 11.21 64.11 17.51 12.32 40.66 10.64 56.25-2.66l35.02 24.62c5.19 3.64 12.39 2.39 16.04-2.79 3.65-5.21 2.38-12.4-2.8-16.04l-35.05-24.61c7.23-19.17 0.97-41.49-16.57-53.82"/>
    <path style="fill:#1A1919;" d="M174.99 127.95l36.25 25.48c2.44 1.71 5.47 2.2 8.31 1.35 2.05-0.63 3.77-1.9 5.03-3.66 1.48-2.09 2.06-4.64 1.59-7.15-0.43-2.54-1.82-4.71-3.91-6.18l-36.27-25.51 0.54-1.41c7.09-18.8 0.56-40-15.88-51.53-11.19-7.87-25.09-10.08-38.18-6.13-9.49 2.88-17.52 8.71-23.23 16.85-13.97 19.88-9.17 47.42 10.71 61.41 11.14 7.81 25.04 10.04 38.1 6.08 5.84-1.77 11.16-4.68 15.8-8.64l1.14-0.96z m45.68 30.53l0 0c-4 1.2-8.24 0.51-11.64-1.88l-33.84-23.78c-4.76 3.81-10.13 6.64-16.02 8.42-14.21 4.3-29.3 1.9-41.41-6.62-21.66-15.19-26.86-45.16-11.69-66.78 6.23-8.83 14.97-15.17 25.29-18.32 14.21-4.3 29.34-1.9 41.48 6.66 17.47 12.28 24.66 34.57 17.79 54.66l33.85 23.79c2.94 2.06 4.91 5.14 5.5 8.68 0.62 3.53-0.17 7.11-2.24 10.02-1.73 2.48-4.18 4.24-7.07 5.15"/>
    <path style="fill:#EB8B2D;" d="M118.4 133.71c0 0-33.89 102.56-25.53 103.18 8.38 0.59 44.68-95.4 67.57-103.67 0 0-23.4-17.9-42.04 0.49"/>
    <path style="fill:#1A1919;" d="M120.08 134.76c-14.48 43.9-27.93 91.75-26.62 99.78 3.48-2.93 11.64-18.93 18.88-33.16 13.68-26.77 30.47-59.6 44.27-68.36-4.79-2.84-15.33-7.85-25.96-4.64-3.81 1.14-7.37 3.3-10.57 6.38z m-26.17 103.9l0 0c-0.38 0.11-0.8 0.17-1.18 0.15-0.89-0.08-1.7-0.55-2.22-1.33-5.23-7.82 18.61-81.88 26.04-104.39 0.12-0.31 0.27-0.55 0.49-0.77 3.72-3.68 7.95-6.24 12.49-7.62 16.25-4.94 31.44 6.49 32.08 6.98 0.57 0.44 0.85 1.14 0.76 1.83-0.14 0.69-0.59 1.27-1.27 1.53-12.9 4.66-31.63 41.33-45.33 68.1-11.76 23.08-17.63 34.24-21.86 35.52"/>
    <path style="fill:#FFFFFE;" d="M163.7 84.79c9.41 6.66 11.72 19.65 5.06 29.05-6.62 9.41-19.61 11.66-29.07 5.05-9.39-6.6-11.64-19.61-5.04-29.02 6.63-9.42 19.63-11.7 29.05-5.08"/>
    <path style="fill:#1A1919;" d="M151.74 83.49c-5.98 0-11.61 2.92-15.05 7.82-5.8 8.28-3.81 19.75 4.44 25.54 8.06 5.62 19.97 3.51 25.59-4.44 2.84-4 3.93-8.85 3.08-13.69-0.84-4.83-3.52-9.05-7.54-11.88-3.09-2.18-6.74-3.34-10.52-3.35z m-0.05 41.69c-4.82 0-9.46-1.46-13.43-4.23-10.5-7.38-13.05-21.97-5.66-32.52 4.38-6.22 11.53-9.94 19.14-9.94 4.81 0 9.45 1.48 13.39 4.26 5.11 3.62 8.51 8.98 9.59 15.11 1.09 6.15-0.31 12.34-3.92 17.43-4.37 6.19-11.51 9.89-19.11 9.89"/>
    <path style="fill:#1A1919;" d="M157.3 96.27c4.78 3.4 5.98 10.08 2.57 14.94-3.4 4.81-10.08 5.97-14.91 2.59-4.81-3.36-5.98-10.08-2.59-14.91 3.38-4.82 10.04-5.99 14.93-2.62"/>
    <path style="fill:#AB2430;" d="M193.48 138.93c0 0-13.63-0.99-15.54 3.67-1.88 4.67-4.44 6.4 2.79 9.26 7.2 2.88 5.83 5.45 12.63 9.55 6.79 4.09 8.24 3.24 11.1-0.18 2.84-3.41 3-14.3 3-14.29l-13.98-8.01"/>
    <path style="fill:#1A1919;" d="M182.4 141.69c-1.44 0.44-2.41 1.03-2.67 1.65-0.33 0.81-0.67 1.55-1 2.19-0.42 0.93-0.98 2.11-0.86 2.43 0.08 0.21 0.56 0.92 3.57 2.11 4.38 1.75 5.95 3.47 7.61 5.3 1.23 1.32 2.51 2.69 5.3 4.39 3.27 1.98 5.18 2.72 6.23 2.4 0.68-0.21 1.42-0.98 2.41-2.15 1.59-1.94 2.36-7.93 2.52-11.97l-12.6-7.21c-1.55-0.07-6.88-0.24-10.51 0.86z m19.29 24.15c-2.62 0.8-5.52-0.47-9.32-2.77-3.3-1.99-4.79-3.64-6.15-5.13-1.48-1.6-2.63-2.85-6.19-4.26-3.42-1.38-5.08-2.61-5.76-4.3-0.76-1.9 0.1-3.66 0.99-5.53 0.3-0.59 0.59-1.24 0.91-1.98 0.71-1.76 2.42-3.07 5.11-3.88 4.95-1.51 12.03-1.02 12.32-0.97l0.82 0.22 14.99 8.61-0.01 1.12c0 1.19-0.28 11.66-3.44 15.5-1.23 1.46-2.48 2.83-4.27 3.37"/>
    <path style="fill:#AB2430;" d="M198.36 140.56c3.57 2.5 4.73 6.99 2.6 10.03-2.13 3-5.64 1.88-9.23-0.63-3.56-2.52-5.82-5.45-3.68-8.47 2.11-3.04 6.74-3.47 10.31-0.93"/>
    <path style="fill:#1A1919;" d="M191.79 141.06c-0.91 0.26-1.67 0.82-2.17 1.54-0.53 0.75-0.52 1.26-0.45 1.6 0.12 0.69 0.75 2.12 3.68 4.17 3.22 2.24 5.27 2.87 6.53 1.1 0.7-1.01 0.9-2.27 0.55-3.63-0.37-1.46-1.33-2.77-2.67-3.72-1.71-1.2-3.74-1.59-5.47-1.06z m7.58 13.01c-2.4 0.74-5.27-0.1-8.75-2.55-3.13-2.2-4.85-4.38-5.26-6.64-0.27-1.55 0.11-3.1 1.08-4.52 2.66-3.77 8.74-4.4 13.04-1.41 2.09 1.48 3.58 3.57 4.2 5.92 0.63 2.47 0.22 4.88-1.13 6.82-0.85 1.18-1.91 2.01-3.18 2.38"/>
    <path style="fill:#AB2430;" d="M191.53 140.88c0 0-3.19-12.97-0.68-16.56 2.51-3.55 6.96-10.09 13.4-0.27 6.74 10.27 18.45 12.51 16.32 18.03-2.13 5.54-10.34 9.1-17.88 6.65-8.19-2.71-11.16-7.85-11.16-7.85"/>
    <path style="fill:#1A1919;" d="M193.34 140.12c0.62 0.86 3.52 4.66 9.98 6.78 5.99 1.98 13.68-0.94 15.44-5.51 0.55-1.42-0.97-2.71-4.85-5.51-3.55-2.54-7.93-5.69-11.28-10.78-1.47-2.24-3.67-4.81-5.68-4.19-1.69 0.52-3.34 2.85-4.43 4.41-1.3 1.84-0.58 9 0.82 14.8z m19.7 10.54c-3.55 1.08-7.45 1.03-10.94-0.09-8.8-2.9-12.11-8.51-12.23-8.73l-0.14-0.24-0.08-0.26c-0.57-2.31-3.25-14.03-0.36-18.12 1.55-2.23 3.58-5.1 6.54-6.01 3.44-1.05 6.83 0.91 10.04 5.77 2.94 4.49 7.02 7.41 10.29 9.77 4.05 2.92 7.88 5.69 6.21 10.03-1.39 3.59-4.87 6.53-9.33 7.88"/>
    <path style="fill:#1A1919;" d="M197.39 147.52c-0.91 0.27-1.9-0.16-2.3-1.05-0.23-0.56-2.14-5.49 3.85-12.62 0.7-0.79 1.92-0.91 2.72-0.22 0.8 0.67 0.91 1.88 0.24 2.71-4.43 5.27-3.3 8.48-3.25 8.62 0.38 0.98-0.1 2.12-1.08 2.48l-0.18 0.08"/>
    <path style="fill:#1A1919;" d="M191.06 150.92l-0.12 0.03c-0.43 0.12-4.36 1.06-6.31 1.14-1.05 0.04-1.95-0.81-1.98-1.85-0.07-1.09 0.76-1.98 1.84-2.01 1.32-0.06 4.44-0.76 5.54-1.03 1.03-0.26 2.08 0.37 2.34 1.42 0.24 0.98-0.34 1.99-1.31 2.3"/>
    <path style="fill:#D8127D;" d="M157.11 24.6c4.74 3.38-8.04 29.76-28.57 59.01-20.56 29.24-41.09 50.23-45.84 46.87-4.77-3.35 8.02-29.77 28.58-58.99 20.52-29.24 41.04-50.25 45.83-46.89"/>
    <path style="fill:#1A1919;" d="M83.83 128.91c0.03-0.02 0.28 0.03 0.86-0.14 6.01-1.82 22.86-18.67 42.24-46.28 23.11-32.88 31.08-53.81 29.05-56.31-0.05 0.01-0.3-0.02-0.87 0.14-6 1.82-22.85 18.66-42.27 46.28-23.11 32.88-31.06 53.81-29.01 56.31z m1.99 3.56c-1.71 0.49-3.11 0.37-4.23-0.4-8.06-5.68 14.86-42.84 28.12-61.69 18.02-25.67 36.23-45.29 44.28-47.75 1.69-0.51 3.12-0.38 4.21 0.41 8.09 5.68-14.84 42.8-28.11 61.69-18.02 25.65-36.23 45.28-44.27 47.74"/>
    <path style="fill:#D8127D;" d="M37.29 59.67l59.58 41.9c3.04 2.11 13.95-8.2 24.41-23.06 10.41-14.85 16.43-28.62 13.38-30.74l-59.61-41.9-37.76 53.8"/>
    <path style="fill:#1A1919;" d="M97.94 99.9c0.07-0.02 0.21-0.02 0.38-0.09 3.47-1.04 12.13-9.27 21.37-22.41 10.87-15.47 14.69-26.41 13.74-28.2l-57.89-40.63-35.56 50.63 57.94 40.71 0.02-0.01z m1.5 3.6l0 0c-1.81 0.56-2.99 0.11-3.67-0.38l-61.18-42.99 39.99-56.94 61.21 43c6.86 4.82-10.9 30.54-12.95 33.44-7.46 10.61-17.58 22.11-23.4 23.87"/>
    <path style="fill:#DF5693;" d="M74.69 5.62c3.02 2.13-2.96 15.91-13.4 30.75-10.45 14.86-21.34 25.15-24.39 23.02-3.03-2.12 2.98-15.89 13.41-30.75 10.42-14.84 21.35-25.15 24.38-23.02"/>
    <path style="fill:#1A1919;" d="M38.09 57.74c0.07-0.02 0.15-0.05 0.24-0.09 3.46-1.04 12.13-9.27 21.4-22.4 10.5-14.95 14.41-25.68 13.82-27.98-0.06 0.01-0.16 0.05-0.31 0.09-3.44 1.05-12.11 9.26-21.34 22.4-10.55 14.97-14.44 25.7-13.85 27.99l0.03-0.01z m1.39 3.61c-1.82 0.56-3 0.11-3.69-0.37-2.42-1.71-2.11-5.82 1.01-12.96 2.57-5.92 6.8-13.2 11.93-20.48 7.47-10.61 17.59-22.09 23.4-23.86 1.8-0.54 2.99-0.12 3.67 0.35 6.86 4.84-10.88 30.55-12.93 33.45-7.45 10.61-17.59 22.1-23.39 23.87"/>
    <path style="fill:#FFFFFE;" d="M422.89 276.15c-0.26 0.38-0.73 0.62-1.21 0.61-14.07-0.29-38.04-14.88-39.05-15.52l-74.26-52.18c-0.63-0.45-0.81-1.34-0.36-2 0.46-0.66 1.35-0.83 2.01-0.35l74.2 52.13c0.16 0.09 24.22 14.78 37.53 15.04 0.79 0.02 1.43 0.68 1.4 1.46 0 0.3-0.11 0.58-0.26 0.81"/>
    <path style="fill:#FFFFFE;" d="M484.27 282.59c-0.34 0.52-1.03 0.75-1.65 0.53-11.73-3.98-41.26-6.51-41.57-6.53-0.79-0.08-1.38-0.77-1.31-1.58 0.08-0.77 0.76-1.38 1.56-1.29 1.2 0.1 30.17 2.58 42.25 6.68 0.76 0.25 1.17 1.06 0.91 1.81-0.05 0.14-0.11 0.27-0.19 0.38"/>
    <path style="fill:url(#Gradient_6);" d="M322.19 205.64c0 0 1.83 1.57-4.27 11.06-6.07 9.49-8.94 7.77-8.94 7.77l-35.9-25.23c0 0 2.36 1.66 8.97-7.74 6.61-9.42 4.27-11.07 4.27-11.07l35.87 25.21z"/>
    <path style="fill:#1A1919;" d="M309.72 222.63l0.12-0.01c0.59-0.17 2.78-1.22 6.46-6.95 3.65-5.66 4.16-8.08 4.21-8.86l-32.28-22.68c-0.62 2.02-2 4.76-4.63 8.47-2.38 3.44-4.5 5.81-6.38 7.21l32.5 22.82z m1.26 3.68c-1.67 0.5-2.74-0.03-3.01-0.21l-35.99-25.28 2.21-3.16c-0.37-0.25-0.6-0.23-0.61-0.23 0.51-0.11 2.75-1.16 6.9-7.03 4.8-6.84 4.29-8.88 4.28-8.88 0 0 0.07 0.24 0.45 0.47l2.2-3.15 35.89 25.23c2.19 1.88 0.88 6.45-3.75 13.67-3.13 4.9-6.03 7.79-8.57 8.57"/>
  </g>
  
  <g class="animate1">
    <path style="fill:#1A1919;" d="M309.72 222.63l0.12-0.01c0.59-0.17 2.78-1.22 6.46-6.95 3.65-5.66 4.16-8.08 4.21-8.86l-32.28-22.68c-0.62 2.02-2 4.76-4.63 8.47-2.38 3.44-4.5 5.81-6.38 7.21l32.5 22.82z m1.26 3.68c-1.67 0.5-2.74-0.03-3.01-0.21l-35.99-25.28 2.21-3.16c-0.37-0.25-0.6-0.23-0.61-0.23 0.51-0.11 2.75-1.16 6.9-7.03 4.8-6.84 4.29-8.88 4.28-8.88 0 0 0.07 0.24 0.45 0.47l2.2-3.15 35.89 25.23c2.19 1.88 0.88 6.45-3.75 13.67-3.13 4.9-6.03 7.79-8.57 8.57"/>
    <rect class="animate2" x="230" y="320" width="370" height="200" style="fill:url(#Gradient_7);" />
    <path style="fill:url(#Gradient_7);" d="M528.32 368.63l-5.76-4.05c0.38-0.34 0.76-0.7 1.11-1.06 1.28-1.3 2.39-2.63 3.36-3.98l5.13 3.61-3.84 5.48z m-12.31-8.65l-44.62-31.35 8.13-2.47 41.17 28.93c-0.73 1.02-1.57 2.03-2.53 3-0.65 0.66-1.38 1.29-2.15 1.89z"/>
    <path style="fill:url(#Gradient_9);" d="M528.53 370.93c-0.19 0-0.38-0.05-0.53-0.16l-6.99-4.9c0.53-0.41 1.05-0.84 1.55-1.29l5.76 4.05 3.84-5.48-5.13-3.61c0.38-0.53 0.74-1.07 1.07-1.61l5.95 4.19c0.44 0.31 0.53 0.9 0.22 1.34l-4.94 7.07c-0.13 0.16-0.3 0.3-0.51 0.37l-0.12 0.01c-0.06 0.01-0.12 0.01-0.17 0.02z m-14.21-9.77l-45.28-31.82 2.35-0.71 44.62 31.35c-0.54 0.41-1.1 0.8-1.69 1.18z m6.37-6.07l-41.17-28.93 2.35-0.72 39.88 28.03c-0.32 0.54-0.67 1.08-1.06 1.62z"/>
    <path style="fill:url(#Gradient_10);" d="M487.47 377.34c-1.95 0-3.61-1.48-3.82-3.46-0.22-2.11 1.33-4.02 3.42-4.25 0.2 0 17.05-1.87 27.25-8.47l6.69 4.71c-4.78 3.71-11.03 6.27-16.79 8.02-8.38 2.55-15.78 3.36-16.35 3.43-0.13 0.01-0.27 0.02-0.4 0.02z m40.63-19.41l-6.35-4.46c5.68-9.56 2.65-19.93 2.62-20.06-0.64-2.03 0.53-4.2 2.55-4.81 0.38-0.12 0.76-0.17 1.14-0.17 1.66 0 3.19 1.07 3.7 2.73 0.2 0.67 4.17 14.22-3.66 26.77z"/>
    <path style="fill:url(#Gradient_11);" d="M522.56 364.58l-6.55-4.6c0.78-0.59 1.5-1.22 2.15-1.89 0.96-0.98 1.8-1.98 2.53-3l6.34 4.45c-0.96 1.35-2.08 2.69-3.36 3.98-0.36 0.36-0.73 0.72-1.11 1.06z"/>
    <path style="fill:url(#Gradient_12);" d="M521.01 365.87l-6.69-4.71c0.59-0.38 1.15-0.77 1.69-1.18l6.55 4.6c-0.49 0.44-1.01 0.87-1.55 1.29z m6.02-6.33l-6.34-4.45c0.38-0.54 0.73-1.08 1.06-1.62l6.35 4.46c-0.33 0.54-0.69 1.07-1.07 1.61z"/>
  </g>

    <path style="fill:#FFF7AA;" d="M349.04 498.15l11.56-100.28c0 0-26.99-62.59-19.27-89.17 7.71-26.56 31.41-94.08 8.94-111.44-22.43-17.36-60.85-7.84-61.02 54-0.26 92.61 35.55 158.17 35.55 158.17l0.13 98.37 24.11-9.65"/>
    <path style="fill:#1A1919;" d="M328.48 191.49c-17.95 0-37.19 15.69-37.31 59.77-0.23 90.99 34.98 156.59 35.32 157.24l0.26 0.43 0.12 96.01 20.37-8.16 11.39-98.64c-2.67-6.29-26.71-63.98-19.17-89.99 0.81-2.73 1.77-5.89 2.84-9.38 9.05-29.8 25.88-85.23 6.79-100-6.09-4.7-13.41-7.28-20.61-7.28z m-5.49 319.15l-0.12-100.73c-3.1-5.95-35.79-70.56-35.56-158.65 0.13-46.98 22.25-63.63 41.17-63.63 8.05 0 16.22 2.86 22.97 8.1 21.19 16.4 4.51 71.34-5.48 104.16-1.05 3.48-2.01 6.62-2.8 9.34-7.44 25.63 18.94 87.23 19.21 87.85l0.2 0.48-0.05 0.51-11.7 101.44-27.84 11.13"/>
    <path style="fill:#D8127D;" d="M310.44 443.88l50.16 0c0 0-7.71 44.37 0 67.5 7.72 23.16 17.37 30.86 17.37 54l0 9.66-158.15 0c0 0-7.74-46.31 13.5-52.09 21.21-5.78 50.82 6.09 64.89 0 26.72-11.52 12.23-79.07 12.23-79.07"/>
    <path style="fill:#1A1919;" d="M221.48 573.1l154.56 0 0-7.72c0-14.55-3.88-22.72-8.81-33.07-2.66-5.66-5.7-12.03-8.44-20.32-6.87-20.6-1.92-56.73-0.44-66.19l-45.55 0c2.38 12.34 11.45 68-13.84 78.93-3.02 1.3-6.88 1.94-11.77 1.93-5.54 0-11.75-0.77-18.32-1.6-7.12-0.88-14.47-1.81-21.5-1.81-5.23 0-9.68 0.51-13.55 1.57-17.2 4.68-13.43 40.24-12.34 48.28z m156.49 3.86l-158.15 0c-0.95 0-1.76-0.67-1.91-1.6-0.34-1.98-7.75-48.1 14.89-54.27 4.2-1.16 8.97-1.7 14.57-1.7 7.27 0 14.75 0.94 21.97 1.84 6.47 0.8 12.55 1.57 17.85 1.57 4.35 0 7.71-0.52 10.24-1.6 24.98-10.8 11.29-76.27 11.15-76.93-0.13-0.56 0.01-1.17 0.4-1.6 0.35-0.47 0.89-0.73 1.46-0.73l50.16 0c0.59 0 1.13 0.25 1.48 0.69 0.36 0.43 0.52 1.02 0.44 1.56-0.09 0.45-7.56 44.15-0.09 66.58 2.7 8.05 5.67 14.33 8.3 19.88 4.92 10.36 9.15 19.33 9.15 34.73l0 9.66c0 1.06-0.85 1.92-1.91 1.92"/>
    <path style="fill:url(#Gradient_13);" d="M340.19 220.96c0 6.47-5.23 11.7-11.68 11.7-6.45 0-11.7-5.23-11.71-11.7 0-6.44 5.25-11.69 11.71-11.69 6.46 0 11.69 5.25 11.68 11.69z"/>
    <path style="fill:#1A1919;" d="M328.51 210.2c-5.38 0-9.76 4.39-9.76 9.76 0 5.4 4.38 9.78 9.76 9.78 5.39 0 9.77-4.38 9.77-9.78 0-5.37-4.38-9.76-9.77-9.76z m0 23.4c-7.5 0-13.63-6.13-13.63-13.64 0-7.5 6.13-13.62 13.63-13.62 7.53 0 13.63 6.12 13.63 13.62 0 7.52-6.1 13.64-13.63 13.64"/>
    <path style="fill:url(#Gradient_14);" d="M120.55 576.14c-21 0-66.5-9.65-72.7-10.99-2.08-3.75-13.09-24.77-15.07-54.55-1.65-24.78-2.4-59.63-2.88-82.69-0.17-8.19-0.32-14.99-0.47-19.5-0.55-16.69-20.63-49.49-23.41-53.99l3.21-36.46c26.58-10.26 78.59-11.38 99.9-11.37 7.52 0 12.16 0.12 12.27 0.11 0.01 0 4.54-0.12 11.92-0.11 20.92 0 72.02 1.12 98.59 11.37l3.21 36.46c-2.79 4.49-22.89 37.29-23.43 53.99-0.14 4.51-0.29 11.32-0.46 19.52-0.49 23.05-1.23 57.9-2.88 82.67-1.98 29.73-13 50.8-15.09 54.55-6.18 1.34-51.66 10.99-72.71 10.99z m0.78-174.94c-27.2 0-87.38 5.03-87.38 5.03 0 0-0.63 137.54 17.27 151.41 0 0 45.03 13.97 70.11 13.97 25.1 0 70.12-13.97 70.12-13.97 17.9-13.88 17.27-151.41 17.27-151.41 0 0-60.17-5.03-87.39-5.03z"/>
    <path style="fill:#1A1919;" d="M47.85 565.15c6.2 1.34 51.7 10.99 72.7 10.99 21.04 0 66.52-9.65 72.71-10.99 2.09-3.75 13.11-24.81 15.09-54.55 1.65-24.77 2.38-59.62 2.88-82.67 0.18-8.2 0.33-15.02 0.46-19.52 0.54-16.69 20.64-49.49 23.43-53.99l-3.21-36.46c-26.56-10.26-77.66-11.38-98.59-11.37-7.38 0-11.91 0.12-11.92 0.11-0.11 0-4.75-0.12-12.27-0.11-21.31 0-73.33 1.12-99.9 11.37l-3.21 36.46c2.79 4.49 22.87 37.29 23.41 53.99 0.15 4.51 0.3 11.31 0.47 19.5 0.48 23.07 1.23 57.91 2.88 82.69 1.98 29.77 12.99 50.8 15.07 54.55m72.7 14.22c-22.81 0-72.01-10.75-74.1-11.21-0.43-0.1-0.8-0.38-1.02-0.75-0.56-0.92-13.64-23.07-15.87-56.6-1.66-24.84-2.41-59.74-2.89-82.83-0.18-8.17-0.32-14.97-0.47-19.47-0.54-16.69-23-52.47-23.22-52.83-0.19-0.31-0.27-0.64-0.25-1.01l3.35-37.98c0.05-0.61 0.45-1.15 1.02-1.36 26.8-10.82 80.28-11.99 102.03-11.99 7.51 0 12.16 0.14 12.25 0.14 0 0 4.58-0.14 11.94-0.14 21.34 0 73.9 1.17 100.71 11.99 0.57 0.21 0.95 0.75 1 1.36l3.36 37.98c0.04 0.37-0.05 0.7-0.23 1.01-0.23 0.36-22.69 36.14-23.23 52.83-0.14 4.5-0.29 11.3-0.45 19.48-0.5 23.09-1.24 57.98-2.89 82.82-2.25 33.54-15.33 55.69-15.89 56.6-0.23 0.38-0.6 0.65-1.04 0.75-2.08 0.45-51.27 11.2-74.11 11.21"/>
    <path style="fill:url(#Gradient_15);" d="M121.33 571.61c-25.09 0-70.12-13.97-70.11-13.97-17.9-13.88-17.27-151.41-17.27-151.41 0 0 60.18-5.03 87.38-5.04 27.21 0 87.38 5.03 87.39 5.04 0 0 0.63 137.54-17.27 151.41 0 0-45.01 13.97-70.12 13.97z"/>
    <path style="fill:#FFFFFE;" d="M126.15 368.42c-39.48 0-96.59-9.2-97.17-9.29-1.77-0.29-2.97-1.95-2.69-3.72 0.3-1.76 1.95-2.95 3.72-2.66 0.57 0.08 57.19 9.21 96.14 9.21 38.98 0 103.38-9.13 104.03-9.22 1.76-0.27 3.41 0.97 3.66 2.74 0.25 1.76-0.98 3.41-2.75 3.67-0.66 0.09-65.5 9.27-104.94 9.27"/>
    <path style="fill:#FFFFFE;" d="M173.64 560.88c-1.77 0-3.21-1.43-3.24-3.22-0.01-1.21-1.09-122.17 0.02-146.55 1.17-26.06 20.35-37.39 21.17-37.86 1.55-0.89 3.52-0.35 4.42 1.19 0.89 1.56 0.35 3.52-1.2 4.41-0.71 0.42-16.93 10.16-17.94 32.55-1.09 24.21-0.01 144.99 0 146.22 0.02 1.77-1.43 3.24-3.2 3.26l-0.03 0"/>
    <path style="fill:#FFFFFE;" d="M127.27 569.26c-1.79 0-3.23-1.46-3.24-3.24l0-167.61c0-4.48 5.49-13.96 7.17-16.75 0.91-1.53 2.91-2.03 4.43-1.12 1.53 0.92 2.03 2.91 1.12 4.44-3.02 5.02-6.25 11.62-6.25 13.43l0 167.61c0 1.77-1.44 3.24-3.23 3.24"/>
    <path style="fill:#FFFFFE;" d="M74.19 560.88c-1.79 0-3.23-1.45-3.23-3.24l0-162.24c-2.13-9.41-9.6-16.98-9.68-17.06-1.26-1.26-1.26-3.3 0-4.57 1.26-1.26 3.32-1.26 4.58 0 0.37 0.37 9.09 9.19 11.48 20.61 0.05 0.22 0.08 0.44 0.08 0.68l0 162.58c0 1.78-1.45 3.23-3.23 3.24"/>
    <path style="fill:#FFFFFE;" d="M127.27 334.03c-32.79 0-109.46-9.67-112.72-10.08-1.77-0.22-3.02-1.85-2.79-3.61 0.23-1.77 1.84-3 3.61-2.82 0.8 0.11 79.52 10.04 111.89 10.04 32.35 0 98.32-9.92 98.98-10.02 1.76-0.26 3.41 0.94 3.68 2.71 0.27 1.77-0.94 3.41-2.71 3.68-2.73 0.42-67.11 10.1-99.95 10.1"/>
  </g>

</svg>

